<svg width="264" height="103" viewBox="0 0 264 103" fill="none" xmlns="http://www.w3.org/2000/svg">
<rect width="264" height="103" rx="15" fill="#A67A76"/>
<path d="M58.35 49C58.35 52.103 57.1015 55.079 54.8792 57.2732C52.6569 59.4673 49.6428 60.7 46.5 60.7C43.3571 60.7 40.343 59.4673 38.1207 57.2732C35.8984 55.079 34.65 52.103 34.65 49C34.65 48.3331 34.7211 47.6818 34.8435 47.05H30.7V62.6383C30.7 63.7225 31.5887 64.6 32.6868 64.6H60.3171C60.8433 64.599 61.3477 64.3918 61.7194 64.0241C62.0912 63.6563 62.3 63.1579 62.3 62.6383V47.05H58.1564C58.2789 47.6818 58.35 48.3331 58.35 49ZM46.5 56.8C47.5377 56.7997 48.5651 56.5977 49.5238 56.2054C50.4824 55.813 51.3533 55.2381 52.0869 54.5135C52.8205 53.7888 53.4023 52.9286 53.7992 51.9819C54.1961 51.0353 54.4002 50.0207 54.4 48.9961C54.3997 47.9715 54.195 46.957 53.7977 46.0106C53.4003 45.0641 52.8181 44.2042 52.0841 43.4799C51.3502 42.7556 50.4789 42.1811 49.5201 41.7892C48.5613 41.3974 47.5337 41.1958 46.496 41.1961C44.4003 41.1966 42.3906 42.0191 40.909 43.4826C39.4275 44.9461 38.5955 46.9308 38.596 49C38.5965 51.0692 39.4296 53.0535 40.9118 54.5162C42.3941 55.979 44.4042 56.8005 46.5 56.8ZM55.9799 40.81H60.716C61.0306 40.81 61.3325 40.6869 61.5553 40.4676C61.7782 40.2482 61.9039 39.9507 61.9049 39.64V34.9639C61.9049 34.6526 61.7797 34.354 61.5567 34.1338C61.3337 33.9137 61.0313 33.79 60.716 33.79H55.9799C55.6646 33.79 55.3622 33.9137 55.1392 34.1338C54.9163 34.354 54.791 34.6526 54.791 34.9639V39.64C54.795 40.2835 55.3282 40.81 55.9799 40.81ZM46.5 11.56C36.4429 11.56 26.7978 15.5046 19.6865 22.5259C12.5751 29.5473 8.57996 39.0703 8.57996 49C8.57996 58.9297 12.5751 68.4527 19.6865 75.4741C26.7978 82.4954 36.4429 86.44 46.5 86.44C51.4797 86.44 56.4106 85.4716 61.0113 83.59C65.612 81.7085 69.7922 78.9507 73.3134 75.4741C76.8346 71.9975 79.6278 67.8701 81.5335 63.3277C83.4391 58.7852 84.42 53.9167 84.42 49C84.42 44.0833 83.4391 39.2148 81.5335 34.6723C79.6278 30.1299 76.8346 26.0025 73.3134 22.5259C69.7922 19.0493 65.612 16.2915 61.0113 14.4099C56.4106 12.5284 51.4797 11.56 46.5 11.56ZM66.25 64.1671C66.25 66.55 64.275 68.5 61.8615 68.5H31.1384C28.725 68.5 26.75 66.55 26.75 64.1671V33.8329C26.75 31.45 28.725 29.5 31.1384 29.5H61.8615C64.275 29.5 66.25 31.45 66.25 33.8329V64.1671Z" fill="black"/>
</svg>
