<svg width="264" height="103" viewBox="0 0 264 103" fill="none" xmlns="http://www.w3.org/2000/svg">
<rect width="264" height="103" rx="15" fill="#A67A76"/>
<path d="M46.5 10C24.6845 10 7 27.4606 7 49C7 70.5394 24.6845 88 46.5 88C68.3155 88 86 70.5394 86 49C86 27.4606 68.3155 10 46.5 10ZM49.2033 58.2422C46.6687 58.0513 45.6071 56.8122 43.6239 55.6259C42.5335 61.2769 41.2004 66.6963 37.2504 69.5278C36.0284 60.9803 39.0361 54.5697 40.4351 47.7569C38.0528 43.7959 40.719 35.8294 45.747 37.7875C51.9312 40.2087 40.3898 52.5141 48.1376 54.0538C56.2269 55.6544 59.5309 40.1925 54.5152 35.1713C47.2653 27.9116 33.4197 35.0047 35.1232 45.3966C35.5346 47.9356 38.1968 48.7075 36.1847 52.2134C31.5476 51.1978 30.161 47.5863 30.342 42.7722C30.6259 34.8909 37.5138 29.37 44.418 28.6103C53.1533 27.6516 61.3495 31.775 62.4852 39.8919C63.7566 49.0487 58.5393 58.9572 49.2033 58.2422Z" fill="black"/>
</svg>
